<svg width="30" height="30" viewBox="0 0 30 30" fill="none" xmlns="http://www.w3.org/2000/svg">
<path d="M3.47265 23.0892C3.47265 17.325 0.486816 13.3667 0.486816 10.5892C0.486816 7.8117 2.08348 1.97754 14.861 1.97754C27.6385 1.97754 29.5135 9.82504 29.5135 12.88C29.5143 27.1859 3.47265 33.2975 3.47265 23.0892Z" fill="#FCD5BA"/>
<path d="M13.0909 20.934C12.9342 21.0907 12.7225 21.1782 12.5017 21.1782C12.2809 21.1782 12.0684 21.0907 11.9125 20.934L6.91252 15.934C6.58669 15.6082 6.58752 15.0807 6.91252 14.7557L8.09085 13.5774C8.41669 13.2515 8.94419 13.2515 9.26919 13.5774L12.5017 16.809L20.7342 8.57738C21.06 8.25155 21.5875 8.25155 21.9125 8.57738L23.0908 9.75572C23.4167 10.0815 23.4167 10.609 23.0908 10.934L13.0909 20.934Z" fill="#FF6633"/>
<path d="M8.78637 15.9341C8.46053 15.6082 8.46137 15.0807 8.78637 14.7557L9.61637 13.9257L9.26803 13.5774C8.9422 13.2515 8.4147 13.2515 8.0897 13.5774L6.91137 14.7557C6.58553 15.0816 6.58553 15.6091 6.91137 15.9341L11.9114 20.9341C12.068 21.0907 12.2797 21.1782 12.5005 21.1782C12.7214 21.1782 12.9339 21.0907 13.0897 20.9341L13.438 20.5857L8.78637 15.9341Z" fill="black" fill-opacity="0.1"/>
</svg>
